<?xml version="1.0" standalone="no"?><svg xmlns="http://www.w3.org/2000/svg" viewBox="0 0 1440 320"><path fill="#f3f4f5" fill-opacity="1" d="M0,192L30,181.3C60,171,120,149,180,117.3C240,85,300,43,360,37.3C420,32,480,64,540,80C600,96,660,96,720,122.7C780,149,840,203,900,202.7C960,203,1020,149,1080,138.7C1140,128,1200,160,1260,160C1320,160,1380,128,1410,112L1440,96L1440,0L1410,0C1380,0,1320,0,1260,0C1200,0,1140,0,1080,0C1020,0,960,0,900,0C840,0,780,0,720,0C660,0,600,0,540,0C480,0,420,0,360,0C300,0,240,0,180,0C120,0,60,0,30,0L0,0Z"></path></svg>